#!OML:ASF X:\für Bonn\!DataBase\2005_08_12_Daniel\c3d\Daniel.ASF
:FULLY-SPECIFIED
:DEGREES
34
root -3.03173 17.2211 -0.531477 -9.34406 -67.4346 -17.6901
lowerback 43.6336 -14.9109 -12.3836
upperback 14.409 -25.6898 -2.3399
thorax 0.43453 -14.3583 11.3611
lowerneck 13.9202 12.4473 0.169913
upperneck 10.0322 15.5782 -0.235002
head 0.981897 7.39268 -0.580595
rclavicle 4.45278e-014 -2.38542e-014
rhumerus -53.2698 8.18857 -73.0646
rradius 31.0423
rwrist 25.9488
rhand -31.4225 36.8858
rfingers 7.12502
rthumb -4.6911 6.95777
lclavicle 4.45278e-014 -2.38542e-014
lhumerus 43.595 2.88949 79.796
lradius 122.399
lwrist 53.9986
lhand -11.9245 -12.4042
lfingers 7.12502
lthumb 14.1298 17.0953
rfemur -63.8044 -17.0531 17.6379
rtibia 116.131
rfoot -1.59132 3.85432
rtoes -15.5629
lfemur 10.1782 -18.695 -22.0287
ltibia 31.4888
lfoot -17.1969 4.64967
ltoes 0.451113
35
root -3.01185 17.2121 -0.530807 -9.49183 -67.3121 -18.3128
lowerback 45.1135 -14.8031 -12.901
upperback 14.6583 -26.0046 -2.3723
thorax 0.550543 -14.6175 11.7678
lowerneck 14.1226 12.5688 0.627944
upperneck 9.82195 15.7833 0.0106456
head 0.901064 7.50756 -0.599362
rclavicle -5.96354e-014 4.77083e-014
rhumerus -53.5128 7.86921 -72.7114
rradius 30.5803
rwrist 25.6687
rhand -31.2522 37.2115
rfingers 7.12502
rthumb -4.52664 7.27983
lclavicle -5.96354e-014 4.77083e-014
lhumerus 45.3343 2.57722 79.711
lradius 123.223
lwrist 54.5648
lhand -11.8073 -12.3424
lfingers 7.12502
lthumb 14.2426 17.1492
rfemur -66.0007 -17.6955 18.3664
rtibia 118.003
rfoot -1.7415 4.54265
rtoes -16.1049
lfemur 10.9147 -18.5873 -21.9358
ltibia 31.4231
lfoot -17.091 4.40477
ltoes 0.537779
36
root -2.98886 17.2046 -0.529731 -9.59128 -67.2322 -18.8679
lowerback 46.4784 -14.6779 -13.3741
upperback 14.8749 -26.277 -2.39243
thorax 0.66152 -14.8499 12.1389
lowerneck 14.2426 12.7078 0.883044
upperneck 9.62109 15.9868 0.374566
head 0.810145 7.61332 -0.550095
rclavicle -8.0309e-014 -6.36111e-014
rhumerus -53.8243 7.57206 -72.374
rradius 30.2279
rwrist 25.2909
rhand -31.0146 37.5683
rfingers 7.12502
rthumb -4.2972 7.63189
lclavicle -8.0309e-014 -6.36111e-014
lhumerus 46.9233 2.28872 79.6448
lradius 124.015
lwrist 55.0917
lhand -11.6683 -12.1748
lfingers 7.12502
lthumb 14.3767 17.3073
rfemur -68.3649 -18.2529 19.1755
rtibia 119.782
rfoot -1.79559 5.07868
rtoes -16.6796
lfemur 11.5269 -18.4473 -21.827
ltibia 31.3419
lfoot -16.9502 4.18855
ltoes 0.598146
37
root -2.96447 17.2029 -0.528623 -9.59371 -67.1911 -19.3817
lowerback 47.6343 -14.5518 -13.7444
upperback 15.0777 -26.483 -2.42361
thorax 0.769413 -15.0369 12.4117
lowerneck 14.2674 12.8446 0.945792
upperneck 9.47766 16.159 0.901857
head 0.722278 7.69456 -0.418218
rclavicle -6.04305e-014 -6.04305e-014
rhumerus -54.3025 7.39242 -72.2329
rradius 30.0147
rwrist 24.7073
rhand -30.8311 37.7518
rfingers 7.12502
rthumb -4.11999 7.81188
lclavicle -6.04305e-014 -6.04305e-014
lhumerus 48.4012 1.90927 79.5663
lradius 124.675
lwrist 55.5621
lhand -11.5707 -12.083
lfingers 7.12502
lthumb 14.4706 17.3924
rfemur -70.8988 -18.7339 20.0881
rtibia 121.485
rfoot -1.80477 5.47329
rtoes -17.1238
lfemur 11.9891 -18.2856 -21.6729
ltibia 31.2457
lfoot -16.7952 3.94685
ltoes 0.739552
38
root -2.94068 17.2029 -0.527715 -9.4896 -67.1889 -19.9258
lowerback 48.6406 -14.4215 -14.0368
upperback 15.291 -26.6366 -2.45226
thorax 0.899456 -15.1965 12.6164
lowerneck 14.1397 12.9937 0.765466
upperneck 9.37116 16.317 1.57828
head 0.63632 7.76107 -0.200367
rclavicle 3.97569e-015 -6.36111e-015
rhumerus -54.8677 7.46936 -72.3533
rradius 29.8852
rwrist 23.8891
rhand -30.7673 37.7555
rfingers 7.12502
rthumb -4.0584 7.81444
lclavicle 3.97569e-015 -6.36111e-015
lhumerus 49.843 1.46916 79.4398
lradius 125.13
lwrist 55.8304
lhand -11.5048 -12.1618
lfingers 7.12502
lthumb 14.5341 17.309
rfemur -73.4732 -19.1383 21.1051
rtibia 123.102
rfoot -1.76698 5.78764
rtoes -17.4783
lfemur 12.3658 -18.0817 -21.46
ltibia 31.1404
lfoot -16.632 3.71844
ltoes 0.83149
39
root -2.91685 17.2024 -0.526258 -9.39654 -67.2107 -20.4437
lowerback 50.5402 -14.1621 -14.3348
upperback 14.4583 -26.8656 -1.73851
thorax 0.915222 -15.3393 12.6651
lowerneck 14.0483 13.1365 0.525922
upperneck 9.24085 16.4604 2.25469
head 0.531427 7.81728 0.0192805
rclavicle 2.70347e-014 -6.20208e-014
rhumerus -55.5367 7.75102 -72.6828
rradius 29.8737
rwrist 22.95
rhand -30.7606 37.4943
rfingers 7.12502
rthumb -4.05196 7.55308
lclavicle 2.70347e-014 -6.20208e-014
lhumerus 51.1589 1.04332 79.2434
lradius 125.424
lwrist 56.0319
lhand -11.4347 -12.4153
lfingers 7.12502
lthumb 14.6017 17.0507
rfemur -75.9862 -19.5163 22.1677
rtibia 124.639
rfoot -1.67435 6.12309
rtoes -17.7228
lfemur 12.7328 -17.8178 -21.2307
ltibia 31.0236
lfoot -16.4548 3.4649
ltoes 0.885222
40
root -2.89395 17.1998 -0.523952 -9.24847 -67.2696 -20.9759
lowerback 51.4705 -14.0198 -14.5275
upperback 14.5915 -26.9664 -1.74755
thorax 1.00289 -15.4531 12.7771
lowerneck 13.9404 13.2593 0.312364
upperneck 9.1302 16.5828 2.90552
head 0.437708 7.86362 0.228491
rclavicle -3.81667e-014 9.06458e-014
rhumerus -56.0881 7.70548 -72.8371
rradius 29.7052
rwrist 22.5563
rhand -30.8854 37.1751
rfingers 7.12502
rthumb -4.17243 7.23621
lclavicle -3.81667e-014 9.06458e-014
lhumerus 52.3568 0.652055 78.9892
lradius 125.576
lwrist 56.1886
lhand -11.3646 -12.8217
lfingers 7.12502
lthumb 14.6693 16.6394
rfemur -78.4191 -19.8042 23.286
rtibia 126.056
rfoot -1.54919 6.44533
rtoes -17.5375
lfemur 13.0639 -17.552 -20.986
ltibia 30.9017
lfoot -16.2865 3.20503
ltoes 1.01127
41
root -2.87143 17.1991 -0.521156 -9.0883 -67.3845 -21.4846
lowerback 52.3696 -13.8585 -14.6994
upperback 14.6817 -27.0316 -1.74054
thorax 1.04636 -15.5389 12.894
lowerneck 13.9455 13.3637 0.0453386
upperneck 8.9366 16.6807 3.47096
head 0.301762 7.895 0.409461
rclavicle -7.87187e-014 3.97569e-014
rhumerus -56.4876 7.3006 -72.677
rradius 29.3258
rwrist 22.7739
rhand -31.0018 36.8868
rfingers 7.12502
rthumb -4.2849 6.95018
lclavicle -7.87187e-014 3.97569e-014
lhumerus 53.4277 0.203476 78.7781
lradius 125.655
lwrist 56.2161
lhand -11.2479 -13.3355
lfingers 7.12502
lthumb 14.7817 16.1173
rfemur -80.7228 -19.9553 24.4123
rtibia 127.289
rfoot -1.37506 6.66506
rtoes -16.6429
lfemur 13.3826 -17.2895 -20.7646
ltibia 30.7729
lfoot -16.1428 3.02421
ltoes 1.1262
42
root -2.84923 17.2006 -0.517658 -8.87581 -67.5259 -22.0103
lowerback 53.2045 -13.701 -14.8338
upperback 14.7588 -27.0752 -1.72473
thorax 1.07842 -15.6092 12.9972
lowerneck 14.0707 13.4332 -0.192743
upperneck 8.61491 16.7506 3.85747
head 0.123529 7.91407 0.52413
rclavicle 9.70069e-014 6.99722e-014
rhumerus -56.6893 6.55475 -72.215
rradius 28.6741
rwrist 23.4737
rhand -31.1163 36.8177
rfingers 7.12502
rthumb -4.39542 6.88334
lclavicle 9.70069e-014 6.99722e-014
lhumerus 54.4156 -0.248618 78.6616
lradius 125.698
lwrist 56.082
lhand -11.1435 -13.7366
lfingers 7.12502
lthumb 14.8823 15.7089
rfemur -82.8114 -20.0122 25.5386
rtibia 128.319
rfoot -1.23798 6.85082
rtoes -15.669
lfemur 13.6835 -17.0387 -20.5417
ltibia 30.6225
lfoot -16.0017 2.89032
ltoes 1.22482
43
root -2.82913 17.201 -0.513228 -8.54858 -67.7091 -22.6177
lowerback 53.9319 -13.5541 -14.9008
upperback 14.8382 -27.0825 -1.7214
thorax 1.09683 -15.6529 13.0507
lowerneck 14.0679 13.4286 -0.274245
upperneck 8.38846 16.7478 4.05398
head 0.0257845 7.90736 0.58076
rclavicle -2.38542e-014 0
rhumerus -56.8624 5.72132 -71.709
rradius 27.9659
rwrist 24.2468
rhand -31.0993 36.7778
rfingers 7.12502
rthumb -4.37904 6.8431
lclavicle -2.38542e-014 0
lhumerus 55.2441 -0.70423 78.6095
lradius 125.767
lwrist 55.9566
lhand -11.0061 -14.1304
lfingers 7.12502
lthumb 15.0146 15.3052
rfemur -84.6755 -20.0025 26.667
rtibia 129.167
rfoot -1.12246 6.94525
rtoes -14.9894
lfemur 13.9818 -16.7925 -20.2904
ltibia 30.4455
lfoot -15.8742 2.76656
ltoes 1.38682
44
root -2.80931 17.2053 -0.507342 -8.1503 -67.9373 -23.2533
lowerback 54.5384 -13.411 -14.9073
upperback 14.9226 -27.0448 -1.71759
thorax 1.11069 -15.6689 13.0666
lowerneck 13.8673 13.3719 -0.287003
upperneck 8.2558 16.6908 4.15825
head 0.00349455 7.88338 0.621773
rclavicle 9.93923e-014 6.67916e-014
rhumerus -56.9991 4.80928 -71.1103
rradius 27.2462
rwrist 24.9796
rhand -30.8905 36.9287
rfingers 7.12502
rthumb -4.17735 6.98992
lclavicle 9.93923e-014 6.67916e-014
lhumerus 55.6413 -1.10276 78.6217
lradius 126.13
lwrist 55.8366
lhand -10.9237 -14.4215
lfingers 7.12502
lthumb 15.094 15.0081
rfemur -86.307 -19.9586 27.7616
rtibia 129.828
rfoot -1.01689 6.97151
rtoes -14.3579
lfemur 14.2735 -16.581 -20.0655
ltibia 30.2479
lfoot -15.7854 2.76359
ltoes 1.38447
45
root -2.79021 17.2098 -0.500195 -7.73878 -68.2032 -23.8424
lowerback 55.0333 -13.2855 -14.8906
upperback 14.9798 -26.9943 -1.73121
thorax 1.09132 -15.6637 13.0558
lowerneck 13.6334 13.3256 -0.367663
upperneck 8.22412 16.6285 4.33158
head 0.00662521 7.85333 0.698302
rclavicle 6.75868e-014 0
rhumerus -57.1101 3.92507 -70.507
rradius 26.4815
rwrist 25.5906
rhand -30.536 37.2426
rfingers 7.12502
rthumb -3.83508 7.29739
lclavicle 6.75868e-014 0
lhumerus 55.7092 -1.43364 78.8075
lradius 126.554
lwrist 55.7557
lhand -10.818 -14.5565
lfingers 7.12502
lthumb 15.1958 14.8655
rfemur -87.7902 -19.9298 28.7389
rtibia 130.376
rfoot -0.783113 6.97162
rtoes -13.2204
lfemur 14.5096 -16.3607 -19.8576
ltibia 30.0564
lfoot -15.6981 2.78271
ltoes 1.51929
46
root -2.77324 17.2147 -0.491583 -7.20858 -68.5121 -24.5172
lowerback 55.4425 -13.1696 -14.8383
upperback 14.9974 -26.9188 -1.71454
thorax 1.03541 -15.6369 13.0625
lowerneck 13.4491 13.321 -0.583924
upperneck 8.20733 16.5998 4.56264
head -0.0105074 7.83409 0.80552
rclavicle 1.26427e-013 9.54166e-015
rhumerus -57.1995 3.19067 -69.8889
rradius 25.7215
rwrist 25.9864
rhand -30.0549 37.6641
rfingers 7.12502
rthumb -3.37052 7.71104
lclavicle 1.26427e-013 9.54166e-015
lhumerus 55.4514 -1.72489 79.2791
lradius 126.967
lwrist 55.6901
lhand -10.5729 -14.6351
lfingers 7.12502
lthumb 15.4319 14.7688
rfemur -89.0295 -19.8935 29.605
rtibia 130.81
rfoot -0.448651 6.91199
rtoes -11.8767
lfemur 14.7151 -16.1182 -19.6162
ltibia 29.8803
lfoot -15.6344 2.8155
ltoes 1.64729
